<?xml version="1.0" encoding="UTF-8"?>
<svg width="48px" height="50px" viewBox="0 0 36 34" version="1.1" xmlns="http://www.w3.org/2000/svg" xmlns:xlink="http://www.w3.org/1999/xlink">
    <title>star2-lg</title>
    <g id="new-michellewiltshire" stroke="none" stroke-width="1" fill="none" fill-rule="evenodd">
        <g id="star2-lg" fill="#000000">
            <path d="M15.3130671,10.9745626 L16.0696041,1.75822501 C16.1509383,0.765000006 16.9913915,0 17.9996772,0 C19.0086085,0 19.8484162,0.765000006 19.9303959,1.75822501 L20.6862874,10.9745626 L22.7319068,8.94603758 C23.4051731,8.27857507 24.4702636,8.19442507 25.2422929,8.74841257 C26.0143222,9.30240008 26.2621978,10.3287751 25.8277699,11.1677251 L24.5064122,13.7151751 L33.6151955,11.5776376 C34.5970153,11.3475001 35.5930364,11.8995751 35.9048174,12.8475376 C36.2165985,13.7948626 35.739567,14.8199626 34.8080969,15.2037376 L26.1666624,18.7622627 L28.7519276,20.0563877 C29.602709,20.4822377 30.013253,21.4569752 29.7182552,22.3533002 C29.4232574,23.2489877 28.5117981,23.7997877 27.5693543,23.6506127 L24.7078111,23.1967127 L29.5807617,31.0915128 C30.1062063,31.9425753 29.8815691,33.0486378 29.0656452,33.6345003 C28.2497213,34.2203628 27.1149157,34.0890378 26.4577871,33.3329628 L20.3609507,26.3160002 L19.9129672,29.1439502 C19.765791,30.0747003 18.9537402,30.7612878 17.9996772,30.7612878 C17.0456143,30.7612878 16.234209,30.0747003 16.0863873,29.1439502 L15.6390493,26.3160002 L9.54221288,33.3329628 C8.88508429,34.0890378 7.75027874,34.2203628 6.93435484,33.6345003 C6.11778543,33.0486378 5.89379366,31.9425753 6.41923833,31.0915128 L11.2921889,23.1967127 L8.43064567,23.6506127 C7.48820192,23.7997877 6.57674262,23.2489877 6.28174482,22.3533002 C5.98674702,21.4569752 6.3966455,20.4822377 7.24807242,20.0563877 L9.83333763,18.7622627 L1.19190308,15.2037376 C0.260432991,14.8199626 -0.216598468,13.7948626 0.0951825801,12.8475376 C0.406963628,11.8995751 1.40298466,11.3475001 2.38480448,11.5776376 L11.4935878,13.7151751 L10.1722301,11.1677251 C9.73715672,10.3287751 9.98567785,9.30240008 10.7577071,8.74841257 C11.5297364,8.19442507 12.5948269,8.27857507 13.2680932,8.94603758 L15.3130671,10.9745626 Z" id="Fill-49"></path>
        </g>
    </g>
</svg>