<?xml version="1.0" encoding="UTF-8"?>
<svg width="54px" height="32px" viewBox="0 0 54 32" version="1.1" xmlns="http://www.w3.org/2000/svg" xmlns:xlink="http://www.w3.org/1999/xlink">
    <title>cloud1</title>
    <g id="new-michellewiltshire" stroke="none" stroke-width="1" fill="none" fill-rule="evenodd">
        <g id="cloud1" fill="#000000">
            <path d="M16.1212,10.5728019 C16.2451,5.22080188 20.8723,0.911801885 26.5536,0.911801885 C31.6326,0.911801885 35.8686,4.35380188 36.7996,8.90780188 C38.2386,8.38280188 39.8366,8.09080188 41.5196,8.09080188 C47.8266,8.09080188 52.9476,12.1968019 52.9476,17.2538019 C52.9476,21.8278019 48.7576,25.6238019 43.2886,26.3068019 C40.6066,28.7918019 33.8866,30.5558019 26.0296,30.5558019 C21.2645,30.5558019 16.9174,29.9068019 13.6367,28.8418019 C12.8716,29.0228019 12.0727,29.1178019 11.2511,29.1178019 C5.662,29.1178019 1.1243,24.6908019 1.1243,19.2368019 C1.1243,13.7828019 5.662,9.35580188 11.2511,9.35580188 C13.0156,9.35580188 14.6753,9.79680188 16.1212,10.5728019 Z" id="Fill-5"></path>
            <path d="M15.2053,8.96280188 C15.6517,6.58480188 16.9009,4.47180188 18.6891,2.89580188 C20.7501,1.07880188 23.5176,-0.0341981153 26.5536,0.000801884667 C29.2356,0.0258018847 31.6916,0.934801885 33.6166,2.43280188 C35.4046,3.82380188 36.7396,5.71780188 37.3686,7.88680188 C37.8936,7.73380188 38.4346,7.60980188 38.9906,7.51480188 C39.8066,7.37480188 40.6526,7.29780188 41.5196,7.29480188 C44.6366,7.27380188 47.4826,8.21080188 49.6466,9.74380188 C52.2346,11.5758019 53.8446,14.2648019 53.8719599,17.2538019 C53.8966,19.9568019 52.6176,22.4348019 50.4906,24.2808019 C48.7336,25.8048019 46.3876,26.8878019 43.7436,27.2948019 C42.3046,28.5018019 39.9766,29.5668019 37.0366,30.3048019 C33.9316,31.0848019 30.1296,31.5178019 26.0296,31.4828019 C23.7906,31.4678019 21.6464,31.2948019 19.653,31.0418019 C17.4178,30.7588019 15.3708,30.3628019 13.607,29.8348019 C13.2653,29.9128019 12.9173,29.9738019 12.5642,30.0208019 C12.1339,30.0768019 11.6958,30.1078019 11.2511,30.1148019 C8.1935,30.1588019 5.3992,28.9928019 3.3655,27.0648019 C1.2779,25.0848019 0.0056,22.2998019 -9.9475983e-14,19.2368019 C0.0036,16.1728019 1.287,13.3998019 3.3618,11.4048019 C5.3921,9.45380188 8.1789,8.24880188 11.2511,8.25380188 C12.2094,8.25580188 13.1394,8.37480188 14.0271,8.59780188 C14.4289,8.69880188 14.8221,8.82080188 15.2053,8.96280188 Z M15.6048,11.5348019 C15.9393,11.7148019 16.343,11.7078019 16.671,11.5158019 C16.9991,11.3248019 17.2043,10.9778019 17.2131,10.5978019 C17.2409,8.16680188 18.3136,5.96480188 20.0289,4.38080188 C21.717,2.82280188 24.0146,1.85080188 26.5536,1.82180188 C28.8326,1.80080188 30.9356,2.52680188 32.5916,3.77180188 C34.3236,5.07380188 35.5686,6.93380188 36.0196,9.06680188 C36.0666,9.29380188 36.2096,9.48880188 36.4116,9.60180188 C36.6136,9.71480188 36.8546,9.73480188 37.0716,9.65480188 C37.7646,9.40080188 38.4956,9.20180188 39.2566,9.07080188 C39.9866,8.94580188 40.7436,8.88480188 41.5196,8.88680188 C44.2646,8.90480188 46.7676,9.74580188 48.6516,11.1248019 C50.7286,12.6448019 52.0456,14.8278019 52.0238714,17.2538019 C52.0036,19.4018019 50.9176,21.3328019 49.2036,22.7708019 C47.6286,24.0918019 45.5196,24.9938019 43.1596,25.2718019 C42.9426,25.2988019 42.7396,25.3928019 42.5796,25.5418019 C41.3626,26.6768019 39.2286,27.6168019 36.5286,28.3278019 C33.5696,29.1078019 29.9476,29.5948019 26.0296,29.6278019 C23.8726,29.6428019 21.7998,29.5398019 19.8803,29.2868019 C17.6578,28.9928019 15.6457,28.5078019 13.9328,27.9298019 C13.7659,27.8758019 13.5872,27.8678019 13.4164,27.9088019 C13.0646,27.9858019 12.7052,28.0418019 12.3398,28.0778019 C11.9824,28.1138019 11.6192,28.1278019 11.2511,28.1218019 C8.7637,28.0858019 6.5349,27.0618019 4.9062,25.4658019 C3.2727,23.8658019 2.2442,21.6708019 2.24858594,19.2368019 C2.2458,16.8028019 3.2662,14.5998019 4.9098,13.0108019 C6.5391,11.4358019 8.7788,10.4608019 11.2511,10.4568019 C12.0258,10.4558019 12.7782,10.5488019 13.4965,10.7258019 C14.2399,10.9098019 14.9471,11.1838019 15.6048,11.5348019 Z" id="Fill-6"></path>
        </g>
    </g>
</svg>