<?xml version="1.0" encoding="UTF-8"?>
<svg width="139px" height="154px" viewBox="0 0 139 154" version="1.1" xmlns="http://www.w3.org/2000/svg" xmlns:xlink="http://www.w3.org/1999/xlink">
    <title>new-michellewiltshire</title>
    <g id="new-michellewiltshire" stroke="none" stroke-width="1" fill="none" fill-rule="evenodd">
        <g id="moon" transform=""  fill="#000000">
            <path d="M133.394724,71.1464113 C131.631724,93.4484113 118.447724,114.275611 96.8937243,124.775311 C64.4977243,140.557211 25.3832243,127.068511 9.60132428,94.6724113 C-6.18057572,62.2754113 7.30812428,23.1614113 39.7044243,7.37941132 C43.5239243,5.51841132 47.4369243,4.06441132 51.3954243,3.00041132 C31.5015243,18.5074113 24.4379243,46.3384113 35.9220243,69.9124113 C49.1100243,96.9844113 81.7957243,108.256211 108.867724,95.0684113 C119.820724,89.7324113 128.187724,81.2044113 133.394724,71.1464113 Z" id="Fill-30"></path>
            <path d="M136.385724,71.3824113 C136.497724,69.9594113 135.591724,68.6544113 134.219724,68.2614113 C132.846724,67.8694113 131.387724,68.4994113 130.730724,69.7674113 C125.809724,79.2714113 117.903724,87.3294113 107.553724,92.3714113 C81.9707243,104.834411 51.0819243,94.1824113 38.6190243,68.5994113 C27.7666243,46.3214113 34.4400243,20.0214113 53.2397243,5.36641132 C54.3655243,4.48941132 54.7171243,2.94041132 54.0804243,1.66241132 C53.4437243,0.384411315 51.9950243,-0.267588685 50.6165243,0.103411315 C46.4769243,1.21641132 42.3848243,2.73641132 38.3906243,4.68241132 C4.50582428,21.1894113 -9.60277572,62.1014113 6.90432428,95.9864113 C23.4113243,129.870811 64.3227243,143.979411 98.2077243,127.472311 C120.750724,116.490711 134.541724,94.7084113 136.385724,71.3824113 Z M133.394724,71.1464113 C131.631724,93.4484113 118.447724,114.275611 96.8937243,124.775311 C64.4977243,140.557211 25.3832243,127.068511 9.60132428,94.6724113 C-6.18057572,62.2754113 7.30812428,23.1614113 39.7044243,7.37941132 C43.5239243,5.51841132 47.4369243,4.06441132 51.3954243,3.00041132 C31.5015243,18.5074113 24.4379243,46.3384113 35.9220243,69.9124113 C49.1100243,96.9844113 81.7957243,108.256211 108.867724,95.0684113 C119.820724,89.7324113 128.187724,81.2044113 133.394724,71.1464113 Z" id="moon"></path>
        </g>
        <g id="moons-specks1" transform="translate(63.049724, 0.000000)" fill="#000000">
            <path d="M5.208,26.702 C2.334,26.702 -4.68070027e-13,29.036 -4.68070027e-13,31.91 C-4.68070027e-13,34.783 2.334,37.117 5.208,37.117 C8.082,37.117 10.415,34.783 10.415,31.91 C10.415,29.036 8.082,26.702 5.208,26.702 Z M5.208,29.702 C6.426,29.702 7.415,30.691 7.415,31.91 C7.415,33.128 6.426,34.117 5.208,34.117 C3.989,34.117 3,33.128 3,31.91 C3,30.691 3.989,29.702 5.208,29.702 Z" id="Fill-33"></path>
            <path d="M19.051,23.218 C16.433,23.218 14.309,25.343 14.309,27.96 C14.309,30.577 16.433,32.702 19.051,32.702 C21.668,32.702 23.793,30.577 23.793,27.96 C23.793,25.343 21.668,23.218 19.051,23.218 Z M19.051,26.218 C20.012,26.218 20.793,26.999 20.793,27.96 C20.793,28.922 20.012,29.702 19.051,29.702 C18.089,29.702 17.309,28.922 17.309,27.96 C17.309,26.999 18.089,26.218 19.051,26.218 Z" id="Fill-35"></path>
            <path d="M8.679,0 C5.333,0 2.616,2.716 2.616,6.062 C2.616,9.408 5.333,12.125 8.679,12.125 C12.025,12.125 14.741,9.408 14.741,6.062 C14.741,2.716 12.025,0 8.679,0 Z M8.679,3 C10.369,3 11.741,4.372 11.741,6.062 C11.741,7.753 10.369,9.125 8.679,9.125 C6.988,9.125 5.616,7.753 5.616,6.062 C5.616,4.372 6.988,3 8.679,3 Z" id="Fill-37"></path>
            <path d="M19.051,26.218 C20.012,26.218 20.793,26.999 20.793,27.96 C20.793,28.922 20.012,29.702 19.051,29.702 C18.089,29.702 17.309,28.922 17.309,27.96 C17.309,26.999 18.089,26.218 19.051,26.218 Z" id="Fill-34"></path>
            <path d="M8.679,3 C10.369,3 11.741,4.372 11.741,6.062 C11.741,7.753 10.369,9.125 8.679,9.125 C6.988,9.125 5.616,7.753 5.616,6.062 C5.616,4.372 6.988,3 8.679,3 Z" id="Fill-36"></path>
            <path d="M5.208,29.702 C6.426,29.702 7.415,30.691 7.415,31.91 C7.415,33.128 6.426,34.117 5.208,34.117 C3.989,34.117 3,33.128 3,31.91 C3,30.691 3.989,29.702 5.208,29.702 Z" id="Fill-32"></path>
        </g>
        <g id="moons-specks2" transform="translate(98.329724, 119.502800)" fill="#000000">
            <path d="M5.207,23.139 C2.333,23.139 0,25.4722 0,28.3461 C0,31.2201 2.333,33.5533 5.207,33.5533 C8.081,33.5533 10.414,31.2201 10.414,28.3461 C10.414,25.4722 8.081,23.139 5.207,23.139 Z M5.207,26.139 C6.425,26.139 7.414,27.128 7.414,28.3461 C7.414,29.5643 6.425,30.5533 5.207,30.5533 C3.989,30.5533 3,29.5643 3,28.3461 C3,27.128 3.989,26.139 5.207,26.139 Z" id="Fill-39"></path>
            <path d="M27.07,22.6545 C28.032,22.6545 28.813,23.4352 28.813,24.3967 C28.813,25.3583 28.032,26.139 27.07,26.139 C26.109,26.139 25.328,25.3583 25.328,24.3967 C25.328,23.4352 26.109,22.6545 27.07,22.6545 Z" id="Fill-40"></path>
            <path d="M27.07,19.6545 C24.453,19.6545 22.328,21.7794 22.328,24.3967 C22.328,27.014 24.453,29.139 27.07,29.139 C29.688,29.139 31.813,27.014 31.813,24.3967 C31.813,21.7794 29.688,19.6545 27.07,19.6545 Z M27.07,22.6545 C28.032,22.6545 28.813,23.4352 28.813,24.3967 C28.813,25.3583 28.032,26.139 27.07,26.139 C26.109,26.139 25.328,25.3583 25.328,24.3967 C25.328,23.4352 26.109,22.6545 27.07,22.6545 Z M33.856,0 C37.202,0 39.918,2.7166 39.918,6.0627 C39.918,9.4087 37.202,12.1253 33.856,12.1253 C30.51,12.1253 27.793,9.4087 27.793,6.0627 C27.793,2.7166 30.51,0 33.856,0 Z" id="Fill-44"></path>
            <path d="M5.207,26.139 C6.425,26.139 7.414,27.128 7.414,28.3461 C7.414,29.5643 6.425,30.5533 5.207,30.5533 C3.989,30.5533 3,29.5643 3,28.3461 C3,27.128 3.989,26.139 5.207,26.139 Z" id="Fill-38"></path>
        </g>
    </g>
</svg>