<?xml version="1.0" encoding="UTF-8"?>
<svg width="191px" height="130px" viewBox="0 0 191 130" version="1.1" xmlns="http://www.w3.org/2000/svg" xmlns:xlink="http://www.w3.org/1999/xlink">
    <title>new-michellewiltshire</title>
    <g id="new-michellewiltshire" stroke="none" stroke-width="1" fill="none" fill-rule="evenodd">
        <g id="star1-sm" fill="#000000">
            <path d="M11.8679793,60.901 L4.5009793,65.157 C4.0529793,65.416 3.5649793,65.546 3.0819793,65.558 L2.9369793,65.559 C1.9239793,65.536 0.946979297,65.001 0.402979297,64.06 C-0.426020703,62.625 0.0649792975,60.79 1.4999793,59.961 L8.8669793,55.706 L1.4979793,51.453 C0.767979297,50.0321064 0.767979297,48.7521242 1.4979793,47.6130536 C2.2279793,46.4739829 3.22764596,46.0216317 4.4969793,46.256 L11.8659793,50.509 L11.8639793,42.001 C11.8639793,40.344 13.2069793,39 14.8629793,39 L15.0179793,39.004 C16.6029793,39.084 17.8639793,40.394 17.8639793,41.999 L17.8659793,50.507 L25.2329793,46.252 C26.1918347,45.6949132 27.1921681,46.1485977 28.2339793,47.6130536 C29.2757905,49.0775094 29.2757905,50.3554916 28.2339793,51.447 L20.8669793,55.703 L28.2359793,59.955 C28.4327798,61.3530632 28.2825854,62.543579 27.7853959,63.5265474 C27.2882065,64.5095158 26.4387343,65.0513333 25.2369793,65.152 L17.8679793,60.9 L17.8699793,69.408 C17.470306,70.6810278 16.4679727,71.3175418 14.8629793,71.3175418 C13.2579859,71.3175418 12.2603192,70.6813612 11.8699793,69.409 L11.8679793,60.901 Z" id="Fill-47"></path>
            <path d="M173.294959,22.628 L165.927959,26.884 C165.479959,27.143 164.991959,27.273 164.508959,27.285 L164.363959,27.286 C163.350959,27.263 162.373959,26.728 161.829959,25.787 C161.000959,24.352 161.491959,22.517 162.926959,21.688 L170.293959,17.433 L162.924959,13.18 C162.194959,11.7591064 162.194959,10.4791242 162.924959,9.34005355 C163.654959,8.20098287 164.654625,7.74863169 165.923959,7.983 L173.292959,12.236 L173.290959,3.728 C173.290959,2.071 174.633959,0.727 176.289959,0.727 L176.444959,0.731 C178.029959,0.811 179.290959,2.121 179.290959,3.726 L179.292959,12.234 L186.659959,7.979 C187.618814,7.42191318 188.619147,7.87559769 189.660959,9.34005355 C190.70277,10.8045094 190.70277,12.0824916 189.660959,13.174 L182.293959,17.43 L189.662959,21.682 C189.859759,23.0800632 189.709565,24.270579 189.212375,25.2535474 C188.715186,26.2365158 187.865714,26.7783333 186.663959,26.879 L179.294959,22.627 L179.296959,31.135 C178.897285,32.4080278 177.894952,33.0445418 176.289959,33.0445418 C174.684965,33.0445418 173.687299,32.4083612 173.296959,31.136 L173.294959,22.628 Z" id="Fill-47-Copy"></path>
        </g>
        
    </g>
</svg>