<?xml version="1.0" encoding="UTF-8"?>
<svg width="607px" height="585px" viewBox="0 0 607 585" version="1.1" xmlns="http://www.w3.org/2000/svg" xmlns:xlink="http://www.w3.org/1999/xlink">
    <!-- Generator: Sketch 64 (93537) - https://sketch.com -->
    <title>sun-moon-all</title>
    <desc>Created with Sketch.</desc>
    <g id="new-michellewiltshire" stroke="none" stroke-width="1" fill="none" fill-rule="evenodd">
        <g id="sun-moon">
            <g id="sun-moon-all" transform="translate(2.750000, 2.000000)">
                <g id="cloud2" transform="translate(112.246000, 124.492463)" fill="#000000">
                    <path d="M22.924,14.9545372 C23.104,7.17453723 29.83,0.910537227 38.089,0.910537227 C45.472,0.910537227 51.63,5.91553723 52.982,12.5345372 C55.074,11.7715372 57.398,11.3465372 59.844,11.3465372 C69.012,11.3465372 76.455,17.3145372 76.455,24.6655372 C76.455,31.3155372 70.364,36.8335372 62.415,37.8255372 C58.516,41.4385372 48.748,44.0025372 37.327,44.0025372 C30.4,44.0025372 24.081,43.0585372 19.312,41.5115372 C18.2,41.7735372 17.039,41.9125372 15.845,41.9125372 C7.72,41.9125372 1.124,35.4765372 1.124,27.5485372 C1.124,19.6215372 7.72,13.1855372 15.845,13.1855372 C18.41,13.1855372 20.822,13.8265372 22.924,14.9545372 Z" id="Fill-1"></path>
                    <path d="M21.973,13.2975372 C22.486,9.69953723 24.299,6.49453723 26.961,4.13253723 C29.871,1.54853723 33.788,-0.0334627731 38.089,0.000537226863 C41.896,0.0255372269 45.385,1.30653723 48.123,3.42553723 C50.76,5.46653723 52.704,8.28053723 53.559,11.5015372 C54.417,11.2335372 55.309,11.0195372 56.227,10.8625372 C57.394,10.6625372 58.603,10.5535372 59.844,10.5515372 C64.29,10.5305372 68.349,11.8695372 71.431,14.0625372 C75.076,16.6565372 77.353,20.4495372 77.3792554,24.6655372 C77.404,28.4695372 75.592,31.9495372 72.592,34.5385372 C70.062,36.7215372 66.68,38.2625372 62.871,38.8155372 C60.833,40.5735372 57.471,42.1125372 53.212,43.1895372 C48.732,44.3225372 43.245,44.9645372 37.327,44.9295372 C34.092,44.9145372 30.99,44.6785372 28.109,44.3115372 C24.836,43.8935372 21.845,43.2935372 19.279,42.5045372 C18.763,42.6235372 18.237,42.7165372 17.702,42.7835372 C17.094,42.8605372 16.474,42.9025372 15.845,42.9095372 C11.53,42.9515372 7.594,41.2935372 4.731,38.5645372 C1.801,35.7715372 0.005,31.8585372 8.52651283e-14,27.5485372 C0.003,23.2385372 1.81,19.3365372 4.728,16.5295372 C7.588,13.7775372 11.515,12.0785372 15.845,12.0835372 C17.196,12.0855372 18.508,12.2525372 19.76,12.5665372 C20.521,12.7575372 21.261,13.0025372 21.973,13.2975372 Z M22.407,15.9165372 C22.742,16.0965372 23.146,16.0895372 23.474,15.8985372 C23.802,15.7075372 24.007,15.3595372 24.016,14.9795372 C24.071,11.3115372 25.704,7.99653723 28.3,5.61753723 C30.837,3.29253723 34.285,1.85153723 38.089,1.82121336 C41.492,1.79953723 44.63,2.89953723 47.098,4.76553723 C49.682,6.71853723 51.535,9.50453723 52.203,12.6935372 C52.249,12.9205372 52.392,13.1155372 52.594,13.2285372 C52.796,13.3415372 53.037,13.3615372 53.255,13.2815372 C54.281,12.9055372 55.365,12.6125372 56.494,12.4185372 C57.574,12.2335372 58.695,12.1405372 59.844,12.1425372 C63.918,12.1615372 67.634,13.4035372 70.437,15.4445372 C73.571,17.7265372 75.554,21.0125372 75.5311979,24.6655372 C75.51,27.9145372 73.891,30.8475372 71.305,33.0285372 C68.957,35.0085372 65.812,36.3685372 62.286,36.7905372 C62.069,36.8175372 61.866,36.9125372 61.706,37.0605372 C59.893,38.7475372 56.724,40.1615372 52.703,41.2125372 C48.37,42.3465372 43.063,43.0405372 37.327,43.0745372 C34.173,43.0895372 31.144,42.9235372 28.337,42.5555372 C25.078,42.1275372 22.123,41.4375372 19.609,40.5985372 C19.442,40.5445372 19.263,40.5375372 19.092,40.5775372 C18.565,40.6965372 18.026,40.7835372 17.478,40.8415372 C16.942,40.8975372 16.397,40.9225372 15.845,40.9165372 C12.1,40.8785372 8.73,39.3625372 6.272,36.9665372 C3.796,34.5525372 2.244,31.2305372 2.24799229,27.5485372 C2.246,23.8685372 3.789,20.5375372 6.276,18.1355372 C8.735,15.7595372 12.115,14.2915372 15.845,14.2865372 C17.012,14.2855372 18.146,14.4265372 19.229,14.6955372 C20.35,14.9735372 21.416,15.3865372 22.407,15.9165372 Z" id="Fill-2"></path>
                </g>
                <g id="cloud3" transform="translate(273.920000, 234.643169)" fill="#000000">
                    <path d="M15.533,10.1938309 C15.652,5.0518309 20.098,0.911830903 25.557,0.911830903 C30.437,0.911830903 34.507,4.2198309 35.401,8.5948309 C36.784,8.0898309 38.32,7.8098309 39.936,7.8098309 C45.996,7.8098309 50.916,11.7538309 50.916,16.6128309 C50.916,21.0088309 46.89,24.6558309 41.636,25.3118309 C39.059,27.6988309 32.603,29.3938309 25.054,29.3938309 C20.475,29.3938309 16.298,28.7708309 13.146,27.7478309 C12.411,27.9208309 11.643,28.0128309 10.854,28.0128309 C5.484,28.0128309 1.124,23.7588309 1.124,18.5188309 C1.124,13.2788309 5.484,9.0248309 10.854,9.0248309 C12.549,9.0248309 14.144,9.4488309 15.533,10.1938309 Z" id="Fill-3"></path>
                    <path d="M14.621,8.5898309 C15.061,6.3168309 16.261,4.2978309 17.974,2.7888309 C19.962,1.0388309 22.63,-0.0341690972 25.557,0.000830902759 C28.142,0.0268309028 30.508,0.902830903 32.363,2.3468309 C34.078,3.6818309 35.36,5.4968309 35.97,7.5748309 C36.466,7.4318309 36.977,7.3148309 37.501,7.2258309 C38.287,7.0908309 39.101,7.0158309 39.936,7.0138309 C42.939,6.9928309 45.679,7.8948309 47.764,9.3698309 C50.261,11.1368309 51.813,13.7308309 51.8404032,16.6128309 C51.866,19.2218309 50.633,21.6128309 48.581,23.3938309 C46.89,24.8618309 44.634,25.9048309 42.091,26.2998309 C40.704,27.4598309 38.466,28.4828309 35.639,29.1918309 C32.653,29.9408309 28.996,30.3568309 25.054,30.3208309 C22.901,30.3058309 20.839,30.1388309 18.922,29.8958309 C16.777,29.6238309 14.811,29.2458309 13.117,28.7408309 C12.79,28.8148309 12.458,28.8738309 12.12,28.9178309 C11.705,28.9728309 11.283,29.0028309 10.854,29.0088309 C7.905,29.0538309 5.209,27.9308309 3.247,26.0708309 C1.232,24.1618309 0.005,21.4738309 2.23820962e-13,18.5188309 C0.003,15.5628309 1.242,12.8868309 3.244,10.9628309 C5.202,9.0808309 7.89,7.9178309 10.854,7.9228309 C11.778,7.9248309 12.675,8.0398309 13.532,8.2548309 C13.903,8.3478309 14.266,8.4598309 14.621,8.5898309 Z M15.017,11.1568309 C15.351,11.3358309 15.755,11.3288309 16.083,11.1378309 C16.411,10.9468309 16.616,10.5988309 16.625,10.2198309 C16.651,7.8948309 17.675,5.7888309 19.314,4.2738309 C20.929,2.7818309 23.127,1.8508309 25.557,1.8228309 C27.738,1.8008309 29.753,2.4948309 31.338,3.6868309 C32.996,4.9328309 34.19,6.7118309 34.622,8.7538309 C34.668,8.9808309 34.811,9.1758309 35.013,9.2888309 C35.215,9.4018309 35.456,9.4208309 35.674,9.3418309 C36.337,9.0978309 37.038,8.9068309 37.768,8.7818309 C38.467,8.6618309 39.193,8.6028309 39.936,8.6048309 C42.567,8.6238309 44.964,9.4298309 46.77,10.7518309 C48.755,12.2068309 50.014,14.2938309 49.9922837,16.6128309 C49.972,18.6668309 48.933,20.5108309 47.294,21.8848309 C45.786,23.1488309 43.767,24.0108309 41.507,24.2768309 C41.29,24.3038309 41.087,24.3978309 40.927,24.5468309 C39.761,25.6338309 37.717,26.5328309 35.131,27.2148309 C32.291,27.9638309 28.814,28.4328309 25.054,28.4668309 C22.983,28.4808309 20.992,28.3838309 19.149,28.1398309 C17.017,27.8588309 15.086,27.3908309 13.442,26.8348309 C13.275,26.7808309 13.097,26.7738309 12.926,26.8138309 C12.589,26.8878309 12.245,26.9408309 11.896,26.9758309 C11.554,27.0088309 11.206,27.0218309 10.854,27.0168309 C8.475,26.9808309 6.345,25.9988309 4.788,24.4728309 C3.227,22.9428309 2.244,20.8458309 2.24798784,18.5188309 C2.246,16.1928309 3.221,14.0878309 4.792,12.5688309 C6.349,11.0628309 8.49,10.1308309 10.854,10.1258309 C11.595,10.1248309 12.314,10.2138309 13.001,10.3838309 C13.712,10.5588309 14.388,10.8208309 15.017,11.1568309 Z" id="Fill-4"></path>
                </g>
                <g id="cloud1" transform="translate(74.580400, 204.999198)" fill="#000000">
                    <path d="M16.1212,10.5728019 C16.2451,5.22080188 20.8723,0.911801885 26.5536,0.911801885 C31.6326,0.911801885 35.8686,4.35380188 36.7996,8.90780188 C38.2386,8.38280188 39.8366,8.09080188 41.5196,8.09080188 C47.8266,8.09080188 52.9476,12.1968019 52.9476,17.2538019 C52.9476,21.8278019 48.7576,25.6238019 43.2886,26.3068019 C40.6066,28.7918019 33.8866,30.5558019 26.0296,30.5558019 C21.2645,30.5558019 16.9174,29.9068019 13.6367,28.8418019 C12.8716,29.0228019 12.0727,29.1178019 11.2511,29.1178019 C5.662,29.1178019 1.1243,24.6908019 1.1243,19.2368019 C1.1243,13.7828019 5.662,9.35580188 11.2511,9.35580188 C13.0156,9.35580188 14.6753,9.79680188 16.1212,10.5728019 Z" id="Fill-5"></path>
                    <path d="M15.2053,8.96280188 C15.6517,6.58480188 16.9009,4.47180188 18.6891,2.89580188 C20.7501,1.07880188 23.5176,-0.0341981153 26.5536,0.000801884667 C29.2356,0.0258018847 31.6916,0.934801885 33.6166,2.43280188 C35.4046,3.82380188 36.7396,5.71780188 37.3686,7.88680188 C37.8936,7.73380188 38.4346,7.60980188 38.9906,7.51480188 C39.8066,7.37480188 40.6526,7.29780188 41.5196,7.29480188 C44.6366,7.27380188 47.4826,8.21080188 49.6466,9.74380188 C52.2346,11.5758019 53.8446,14.2648019 53.8719599,17.2538019 C53.8966,19.9568019 52.6176,22.4348019 50.4906,24.2808019 C48.7336,25.8048019 46.3876,26.8878019 43.7436,27.2948019 C42.3046,28.5018019 39.9766,29.5668019 37.0366,30.3048019 C33.9316,31.0848019 30.1296,31.5178019 26.0296,31.4828019 C23.7906,31.4678019 21.6464,31.2948019 19.653,31.0418019 C17.4178,30.7588019 15.3708,30.3628019 13.607,29.8348019 C13.2653,29.9128019 12.9173,29.9738019 12.5642,30.0208019 C12.1339,30.0768019 11.6958,30.1078019 11.2511,30.1148019 C8.1935,30.1588019 5.3992,28.9928019 3.3655,27.0648019 C1.2779,25.0848019 0.0056,22.2998019 -9.9475983e-14,19.2368019 C0.0036,16.1728019 1.287,13.3998019 3.3618,11.4048019 C5.3921,9.45380188 8.1789,8.24880188 11.2511,8.25380188 C12.2094,8.25580188 13.1394,8.37480188 14.0271,8.59780188 C14.4289,8.69880188 14.8221,8.82080188 15.2053,8.96280188 Z M15.6048,11.5348019 C15.9393,11.7148019 16.343,11.7078019 16.671,11.5158019 C16.9991,11.3248019 17.2043,10.9778019 17.2131,10.5978019 C17.2409,8.16680188 18.3136,5.96480188 20.0289,4.38080188 C21.717,2.82280188 24.0146,1.85080188 26.5536,1.82180188 C28.8326,1.80080188 30.9356,2.52680188 32.5916,3.77180188 C34.3236,5.07380188 35.5686,6.93380188 36.0196,9.06680188 C36.0666,9.29380188 36.2096,9.48880188 36.4116,9.60180188 C36.6136,9.71480188 36.8546,9.73480188 37.0716,9.65480188 C37.7646,9.40080188 38.4956,9.20180188 39.2566,9.07080188 C39.9866,8.94580188 40.7436,8.88480188 41.5196,8.88680188 C44.2646,8.90480188 46.7676,9.74580188 48.6516,11.1248019 C50.7286,12.6448019 52.0456,14.8278019 52.0238714,17.2538019 C52.0036,19.4018019 50.9176,21.3328019 49.2036,22.7708019 C47.6286,24.0918019 45.5196,24.9938019 43.1596,25.2718019 C42.9426,25.2988019 42.7396,25.3928019 42.5796,25.5418019 C41.3626,26.6768019 39.2286,27.6168019 36.5286,28.3278019 C33.5696,29.1078019 29.9476,29.5948019 26.0296,29.6278019 C23.8726,29.6428019 21.7998,29.5398019 19.8803,29.2868019 C17.6578,28.9928019 15.6457,28.5078019 13.9328,27.9298019 C13.7659,27.8758019 13.5872,27.8678019 13.4164,27.9088019 C13.0646,27.9858019 12.7052,28.0418019 12.3398,28.0778019 C11.9824,28.1138019 11.6192,28.1278019 11.2511,28.1218019 C8.7637,28.0858019 6.5349,27.0618019 4.9062,25.4658019 C3.2727,23.8658019 2.2442,21.6708019 2.24858594,19.2368019 C2.2458,16.8028019 3.2662,14.5998019 4.9098,13.0108019 C6.5391,11.4358019 8.7788,10.4608019 11.2511,10.4568019 C12.0258,10.4558019 12.7782,10.5488019 13.4965,10.7258019 C14.2399,10.9098019 14.9471,11.1838019 15.6048,11.5348019 Z" id="Fill-6"></path>
                </g>
                <g id="the-mountains" transform="translate(0.000000, 87.693696)">
                    <g id="mtn1" transform="translate(22.180900, 119.510121)">
                        <path d="M42.4745,5.31718338 C41.8932,6.92918338 41.1337,9.19118338 40.2851,11.9921834 C39.5843,14.3041834 38.8373,16.9811834 38.0243,19.9451834 C35.9749,27.4171834 33.7517,36.7391834 31.0372,46.6601834 C30.5918,48.2881834 30.1168,49.9261834 29.6127,51.5701834 C23.2078,72.4541834 15.5232,95.1661834 10.8928,110.041183 C10.2302,112.170183 9.6185,114.134183 9.1047,115.915183 C7.9162,120.035183 7.1329,123.139183 6.6647,124.808183 C5.8469,127.816183 5.3374,130.805183 5.0351,133.805183 C4.5724,138.395183 4.6104,142.997183 4.7468,147.701183 C4.7468,149.011183 3.6833,150.075183 2.3734,150.075183 C1.0635,150.075183 -5.18696197e-13,149.011183 -5.18696197e-13,147.701183 C0.1418,142.813183 0.4042,138.041183 1.1424,133.305183 C1.637,130.132183 2.3289,126.976183 3.3604,123.820183 C3.8846,122.172183 4.8946,119.143183 6.0992,115.040183 C6.6213,113.262183 7.1575,111.276183 7.7385,109.124183 C11.801,94.0771834 17.3919,70.7431834 23.4621,49.7491834 C24.1344,47.4241834 24.8613,45.1431834 25.5891,42.9051834 C28.9687,32.5131834 32.4403,23.0971834 34.9465,15.7701834 C37.9357,7.03018338 40.0019,1.28818338 40.5795,0.671183385 C41.0855,0.123183385 42.2013,-0.515816615 43.5306,0.672183385 C44.0647,1.14918338 45.027,2.44418338 46.2581,4.34118338 C51.2488,12.0331834 61.7201,30.4921834 68.4122,38.4821834 C69.4536,39.6991834 74.4835,47.1901834 81.3111,56.8931834 C87.0981,65.1171834 94.3681,74.7821834 100.8221,84.1011834 C108.9641,95.8551834 116.0601,106.829183 119.3711,112.030183 C120.3181,113.518183 120.9591,114.578183 121.2421,115.104183 C121.7851,116.115183 121.7911,116.845183 121.7931,117.070183 C121.7931,119.002183 120.2251,120.570183 118.2931,120.570183 C116.7891,120.570183 115.5061,119.619183 115.0111,118.287183 C114.8441,117.991183 114.1711,116.813183 113.4891,115.693183 C110.2981,110.456183 103.1731,99.5841834 95.6141,87.5341834 C88.8331,76.7281834 81.9011,64.8831834 76.1171,55.9071834 C70.8087,47.6691834 66.6574,41.7881834 65.7611,40.7101834 C58.9754,32.6611834 48.3576,14.0371834 43.251,6.31018338 C43.0124,5.94918338 42.7421,5.61818338 42.4745,5.31718338 Z" id="Fill-50" fill="#000000"></path>
                        <path d="M26.6394,53.0701834 C36.3388,40.5511834 64.3242,33.6541834 68.5632,42.0151834" id="Stroke-56" stroke="#000000" stroke-width="3" stroke-linecap="round" stroke-linejoin="round"></path>
                        <path d="M32.751,46.6951834 C32.4967,48.3301834 31.4123,55.1241834 30.6373,60.2281834 C30.1837,63.2151834 29.8369,65.6161834 29.8214,66.0831834 C29.8068,66.2651834 29.9426,66.4241834 30.1246,66.4391834 C30.3065,66.4531834 30.466,66.3171834 30.4807,66.1361834 C30.5391,65.6791834 31.1051,63.3561834 31.8266,60.4671834 C33.077,55.4591834 34.794,48.7981834 35.2004,47.1951834 C35.3384,46.5191834 34.9016,45.8591834 34.2257,45.7211834 C33.5497,45.5831834 32.8889,46.0191834 32.751,46.6951834 Z" id="Fill-63" fill="#000000"></path>
                        <path d="M57.0916,39.2631834 C57.4448,40.2171834 58.8957,44.1791834 60.0076,47.1551834 C60.6596,48.9001834 61.1879,50.2931834 61.3153,50.5521834 C61.383,50.7221834 61.5755,50.8041834 61.745,50.7371834 C61.9145,50.6691834 61.9972,50.4761834 61.9296,50.3071834 C61.8449,50.0361834 61.5437,48.6071834 61.173,46.8191834 C60.5284,43.7091834 59.6991,39.5741834 59.4957,38.5771834 C59.3065,37.9141834 58.6142,37.5291834 57.9508,37.7181834 C57.2874,37.9071834 56.9024,38.5991834 57.0916,39.2631834 Z" id="Fill-64" fill="#000000"></path>
                        <path d="M39.4715,42.8681834 C39.4108,44.4041834 39.1351,50.7901834 38.9621,55.5851834 C38.8609,58.3901834 38.7945,60.6421834 38.8265,61.0751834 C38.8307,61.2581834 38.9823,61.4021834 39.1647,61.3982647 C39.3472,61.3941834 39.4919,61.2421834 39.4877,61.0601834 C39.4995,60.6321834 39.7919,58.4301834 40.1705,55.6901834 C40.8268,50.9381834 41.746,44.6151834 41.9614,43.0931834 C42.0234,42.4061834 41.516,41.7981834 40.8289,41.7361834 C40.1418,41.6741834 39.5336,42.1811834 39.4715,42.8681834 Z" id="Fill-65" fill="#000000"></path>
                        <path d="M45.7639,41.9171834 C45.9379,43.1371834 46.6472,48.2051834 47.1997,52.0131834 C47.5226,54.2371834 47.789,56.0181834 47.8662,56.3591834 C47.8951,56.5401834 48.0649,56.6621834 48.2451,56.6331834 C48.4253,56.6051834 48.5481,56.4351834 48.5191,56.2551834 C48.486,55.9111834 48.4483,54.1331834 48.4087,51.9141834 C48.3402,48.0691834 48.2751,42.9531834 48.2562,41.7211834 C48.2021,41.0331834 47.5998,40.5181834 46.912,40.5721834 C46.2242,40.6271834 45.7098,41.2291834 45.7639,41.9171834 Z" id="Fill-66" fill="#000000"></path>
                        <path d="M52.0327,39.9851834 C52.3116,41.1851834 53.4566,46.1731834 54.3365,49.9191834 C54.8506,52.1071834 55.2701,53.8581834 55.3765,54.1921834 C55.4209,54.3691834 55.6007,54.4761834 55.7777,54.4321834 C55.9547,54.3881834 56.0624,54.2081834 56.018,54.0311834 C55.9552,53.6911834 55.7638,51.9231834 55.5325,49.7161834 C55.1315,45.8911834 54.6241,40.8001834 54.4987,39.5741834 C54.3852,38.8931834 53.7407,38.4331834 53.0602,38.5461834 C52.3797,38.6601834 51.9193,39.3041834 52.0327,39.9851834 Z" id="Fill-67" fill="#000000"></path>
                    </g>
                    <g id="mtn2" transform="translate(125.153947, 0.000000)">
                        <path d="M2.37405265,214.376304 C19.5950526,167.381304 43.0380526,76.1783044 43.0380526,76.1783044 C43.0380526,76.1783044 77.7060526,1.59930437 77.9930526,1.93019919 C82.5710526,7.24030437 154.543053,213.244304 154.543053,232.004304" id="Fill-51" fill="#FFFFFF"></path>
                        <path d="M45.8450526,77.2573044 C44.9960526,80.3053044 38.3950526,103.910304 29.9330526,132.364304 C26.7700526,143.002304 23.2220526,154.275304 19.8860526,165.489304 C14.5230526,183.515304 9.45105265,201.298304 4.60205265,215.193304 C4.15205265,216.423304 2.78705265,217.055304 1.55705265,216.605304 C0.327052648,216.154304 -0.304947352,214.789304 0.145052648,213.560304 C4.32805265,202.715304 8.96205265,189.515304 13.4220526,175.576304 C15.1570526,170.152304 16.8910526,164.624304 18.5030526,159.065304 C30.5620526,117.463304 40.1370526,75.4333044 40.1370526,75.4333044 C40.1830526,75.2553044 40.2450526,75.0823044 40.3220526,74.9163044 C40.3220526,74.9163044 44.0860526,66.1193044 49.4790526,54.7313044 C56.7980526,39.2793044 67.1070526,19.0833044 72.4790526,8.38630437 C74.0810526,5.19530437 75.2630526,2.85430437 75.8550526,1.75030437 C76.0750526,1.34230437 76.2290526,1.07130437 76.3110526,0.948304369 C77.5090526,-0.850695631 79.2460526,0.416304369 79.4560526,0.668304369 C81.1330526,2.62430437 91.7780526,31.4043044 104.668053,68.1413044 C109.639053,82.3093044 114.856053,97.7043044 120.280053,113.098304 C126.063053,129.512304 132.092053,145.909304 137.389053,161.158304 C139.031053,165.885304 140.646053,170.484304 142.132053,174.949304 C151.724053,203.783304 158.007053,226.331304 158.043053,232.004304 C158.043053,233.936304 156.475053,235.504304 154.543053,235.504304 C152.611053,235.504304 151.043053,233.936304 151.043053,232.004304 C151.079053,226.382304 144.310053,203.700304 135.442053,174.534304 C130.041053,156.769304 124.181053,136.555304 117.647053,116.557304 C112.493053,100.781304 106.974053,85.1383044 101.880053,70.6653044 C91.0910526,40.0123044 81.7910526,14.7963044 78.0520526,6.22730437 C77.5460526,7.32230437 76.9370526,8.65530437 76.2460526,10.1833044 C71.3160526,21.0803044 62.4370526,41.9243044 55.3080526,57.4503044 C50.5000526,67.9193044 46.4950526,75.9603044 45.8450526,77.2573044 Z" id="Fill-52" fill="#000000"></path>
                        <path d="M46.2050526,70.9343044 C56.9440526,59.2943044 95.0560526,58.4243044 102.501053,67.6533044" id="Stroke-57" stroke="#000000" stroke-width="3" stroke-linecap="round" stroke-linejoin="round"></path>
                        <path d="M56.3420526,65.1343044 C56.2940526,66.7963044 56.0670526,73.6743044 55.9350526,78.8613044 C55.8570526,81.9133044 55.8100526,84.3493044 55.8530526,84.8193044 C55.8560526,85.1483044 56.1240526,85.4123044 56.4530526,85.4103157 C56.7810526,85.4073044 57.0460526,85.1393044 57.0430526,84.8103044 C57.0790526,84.3513044 57.5300526,82.0203044 58.1050526,79.1003044 C59.1060526,74.0123044 60.4860526,67.2733044 60.8130526,65.6443044 C60.9540526,64.4103044 60.0660526,63.2953044 58.8330526,63.1543044 C57.5990526,63.0133044 56.4830526,63.9013044 56.3420526,65.1343044 Z" id="Fill-68" fill="#000000"></path>
                        <path d="M83.7220526,63.6903044 L85.8640526,75.6613044 C85.9090526,75.9863044 86.2100526,76.2143044 86.5360526,76.1683044 C86.8610526,76.1233044 87.0880526,75.8223044 87.0430526,75.4973044 L88.2190526,63.5253044 C88.1730526,62.2843044 87.1290526,61.3133044 85.8880526,61.3593044 C84.6470526,61.4043044 83.6760526,62.4493044 83.7220526,63.6903044 Z" id="Fill-69" fill="#000000"></path>
                        <path d="M66.4830526,63.6713044 C66.4850526,65.2173044 66.4660526,71.6103044 66.4870526,76.4363044 C66.4990526,79.2753044 66.5200526,81.5373044 66.5700526,81.9743044 C66.5780526,82.3033044 66.8500526,82.5633044 67.1790526,82.5564425 C67.5070526,82.5483044 67.7680526,82.2753044 67.7600526,81.9473044 L70.9650526,64.0763044 C71.0770526,62.8393044 70.1640526,61.7453044 68.9270526,61.6333044 C67.6900526,61.5213044 66.5950526,62.4353044 66.4830526,63.6713044 Z" id="Fill-70" fill="#000000"></path>
                        <path d="M75.0330526,62.8163044 L77.8710526,77.2223044 C77.9230526,77.5473044 78.2280526,77.7683044 78.5530526,77.7153044 C78.8770526,77.6633044 79.0980526,77.3583044 79.0460526,77.0333044 L79.5190526,62.4633044 C79.4210526,61.2253044 78.3370526,60.2993044 77.0990526,60.3963044 C75.8610526,60.4943044 74.9350526,61.5783044 75.0330526,62.8163044 Z" id="Fill-71" fill="#000000"></path>
                        <path d="M91.9980526,64.9113044 C92.2400526,66.2723044 93.2110526,71.8933044 93.9860526,76.1363044 C94.4450526,78.6523044 94.8230526,80.6483044 94.9490526,81.0203044 C95.0230526,81.3403044 95.3420526,81.5403044 95.6630526,81.4673044 C95.9830526,81.3933044 96.1830526,81.0743044 96.1100526,80.7543044 C96.0630526,80.3793044 96.1050526,78.4243044 96.1620526,75.9653044 C96.2620526,71.6553044 96.4470526,65.9583044 96.4850526,64.5783044 C96.3930526,63.3393044 95.3130526,62.4093044 94.0740526,62.5013044 C92.8360526,62.5933044 91.9050526,63.6733044 91.9980526,64.9113044 Z" id="Fill-72" fill="#000000"></path>
                    </g>
                    <g id="mtn3" transform="translate(267.509000, 136.058642)">
                        <path d="M2.373,50.1556626 C16.452,50.1556626 83.915,-4.05033743 90.151,2.84766257 C99.809,13.5296626 120.52,67.8746626 125.152,78.7786626 C128.385,86.3876626 141.553,111.294663 141.553,111.294663" id="Fill-53" fill="#FFFFFF"></path>
                        <path d="M2.373,52.5296626 C4.69,52.4416626 8.3,51.0926626 12.743,48.7016626 C16.385,46.7416626 20.601,44.0206626 25.326,41.1116626 C27.864,39.5506626 30.578,37.9896626 33.346,36.3326626 C43.771,30.0936626 55.29,23.1336626 65.264,17.2286626 C67.327,16.0076626 69.335,14.8566626 71.218,13.7086626 C72.576,12.8806626 73.859,12.0426626 75.099,11.2626626 C80.224,8.03866257 84.385,5.56366257 87.219,4.75966257 C87.598,4.65266257 87.936,4.55566257 88.247,4.52366257 C88.429,4.50466257 88.716,4.48066257 88.716,4.48066257 C88.716,4.48066257 88.603,4.35566257 88.546,4.29866257 C89.667,5.44566257 90.992,7.13166257 92.366,9.30566257 C95.978,15.0216626 100.138,23.7146626 104.298,33.0486626 C108.449,42.3646626 112.673,52.3046626 115.898,60.8316626 C119.153,69.4356626 121.412,76.5756626 122.633,79.8486626 C123.493,82.1126626 125.081,85.8796626 127.034,90.0516626 C131.799,100.230663 138.459,112.930663 138.459,112.930663 C139.362,114.637663 141.481,115.291663 143.189,114.388663 C144.897,113.485663 145.55,111.365663 144.647,109.658663 L127.672,77.7086626 C126.509,75.2996626 124.37,70.7586626 121.769,64.9646626 C120.584,62.3246626 119.293,59.4366626 117.984,56.3636626 C113.656,46.1976626 108.758,34.2156626 104.026,23.9666626 C101.195,17.8356626 98.427,12.3276626 96.059,8.08766257 C94.458,5.22066257 93.031,2.91266257 91.756,1.39666257 C90.773,0.186662569 88.723,-0.366337431 85.701,0.260662569 C82.156,0.995662569 76.67,3.34766257 70.209,6.87366257 C69.232,7.40766257 68.237,7.97666257 67.234,8.58966257 C65.07,9.91266257 62.852,11.4046626 60.559,12.9536626 C51.093,19.3516626 40.628,27.1376626 30.895,33.7196626 C28.315,35.4646626 25.814,37.1626626 23.348,38.6416626 C14.016,44.2376626 6.114,47.9066626 2.373,47.7826626 C1.064,47.7826626 -1.27897692e-13,48.8466626 -1.27897692e-13,50.1556626 C-1.27897692e-13,51.4656626 1.064,52.5296626 2.373,52.5296626 Z" id="Fill-54" fill="#000000"></path>
                        <path d="M49.145,23.9216626 C67.099,14.4146626 100.808,26.8746626 106.825,36.5216626" id="Stroke-58" stroke="#000000" stroke-width="3" stroke-linecap="round" stroke-linejoin="round"></path>
                        <path d="M67.2,20.5776626 C66.608,21.5176626 64.119,25.3976626 62.292,28.3406626 C61.201,30.0976626 60.351,31.5126626 60.255,31.8036626 C60.186,31.9726626 60.267,32.1656626 60.436,32.2346626 C60.605,32.3036626 60.798,32.2226626 60.867,32.0536626 C60.997,31.7906626 62.004,30.5716626 63.275,29.0516626 C65.494,26.3946626 68.498,22.9036626 69.216,22.0566626 C69.624,21.5006626 69.503,20.7176626 68.947,20.3096626 C68.391,19.9016626 67.608,20.0216626 67.2,20.5776626 Z" id="Fill-83" fill="#000000"></path>
                        <path d="M99.488,31.9206626 C99.559,32.9666626 99.834,37.3086626 100.068,40.5766626 C100.205,42.4916626 100.325,44.0246626 100.384,44.3236626 C100.406,44.5046626 100.571,44.6346626 100.752,44.6126626 C100.933,44.5906626 101.062,44.4256626 101.04,44.2446626 C101.027,43.9466626 101.136,42.4496626 101.281,40.5796626 C101.533,37.3146626 101.903,32.9826626 101.988,31.9366626 C101.993,31.2476626 101.436,30.6836626 100.747,30.6786292 C100.057,30.6736626 99.493,31.2306626 99.488,31.9206626 Z" id="Fill-84" fill="#000000"></path>
                        <path d="M75.68,22.2756626 C75.016,23.6666626 72.226,29.4406626 70.174,33.7936626 C68.97,36.3476626 68.022,38.4066626 67.896,38.8236626 C67.835,38.9956626 67.925,39.1846626 68.097,39.2466626 C68.268,39.3076626 68.458,39.2176626 68.519,39.0466626 C68.683,38.6516626 69.816,36.7396626 71.244,34.3656626 C73.723,30.2426626 77.079,24.7816626 77.879,23.4646626 C78.207,22.8576626 77.981,22.0986626 77.374,21.7706626 C76.767,21.4426626 76.008,21.6686626 75.68,22.2756626 Z" id="Fill-85" fill="#000000"></path>
                        <path d="M83.906,24.5626626 C83.654,25.7726626 82.589,30.7926626 81.814,34.5716626 C81.361,36.7836626 81.008,38.5576626 80.974,38.9106626 C80.944,39.0906626 81.067,39.2606626 81.247,39.2896626 C81.427,39.3186626 81.597,39.1966626 81.626,39.0156626 C81.704,38.6766626 82.269,36.9906626 82.985,34.8896626 C84.228,31.2386626 85.915,26.3936626 86.317,25.2256626 C86.5,24.5606626 86.108,23.8716626 85.443,23.6886626 C84.778,23.5056626 84.089,23.8976626 83.906,24.5626626 Z" id="Fill-86" fill="#000000"></path>
                        <path d="M92.136,28.2786626 C92.023,29.5206626 91.537,34.6736626 91.197,38.5506626 C90.999,40.8166626 90.851,42.6346626 90.856,42.9936626 C90.847,43.1756626 90.988,43.3306626 91.17,43.3396626 C91.353,43.3476626 91.508,43.2066626 91.517,43.0246626 C91.555,42.6746626 91.925,40.9186626 92.397,38.7316626 C93.216,34.9286626 94.34,29.8776626 94.607,28.6596626 C94.712,27.9786626 94.243,27.3396626 93.562,27.2336626 C92.88,27.1286626 92.241,27.5976626 92.136,28.2786626 Z" id="Fill-87" fill="#000000"></path>
                    </g>
                    <g id="mtn4" transform="translate(398.779000, 136.770149)">
                        <path d="M0.652,86.7431552 C0.675,86.7171552 0.699,86.6921552 0.726,86.6661552 C1.088,86.3091552 1.837,85.5551552 2.855,84.5201552 C6.25,81.0711552 12.649,74.5731552 17.808,69.3031552 C20.456,66.5981552 22.766,64.2041552 24.228,62.7611552 C32.662,53.9691552 40.823,46.7761552 49.063,40.0981552 C56.854,33.7841552 64.634,27.8421552 72.915,21.6331552 C74.498,20.4451552 76.112,19.2641552 77.751,18.0721552 C81.405,15.4161552 85.188,12.7241552 89.051,9.8061552 C89.741,9.2861552 99.445,3.1981552 103.429,0.977155202 C104.226,0.532155202 104.82,0.227155202 105.114,0.121155202 C106.025,-0.207844798 106.582,0.219155202 106.75,0.388155202 C106.928,0.568155202 107.109,0.817155202 107.206,1.1771552 C107.325,1.6161552 107.321,2.4921552 107.135,3.5901552 C106.681,6.2761552 105.362,10.7181552 105.135,11.5941552 C103.252,18.9621552 103.068,41.1211552 103.805,65.4101552 C103.952,70.2371552 104.152,75.1471552 104.404,80.0401552 C105.019,91.9761552 105.978,103.800155 106.61,114.148155 C107.648,131.152155 108.271,144.122155 108.291,146.777155 C108.291,148.157155 107.17,149.277155 105.791,149.277155 C104.411,149.277155 103.291,148.157155 103.291,146.777155 C103.315,143.864155 102.44,128.458155 101.932,108.923155 C101.715,100.581155 101.717,91.4981552 101.6,82.3081552 C101.552,78.5071552 101.503,74.6911552 101.428,70.9031552 C101.198,59.3341552 100.932,48.0361552 100.964,38.3061552 C101.006,25.5711552 101.448,15.4971552 102.592,10.9471552 C102.788,10.1561552 103.908,6.3431552 104.371,3.7431552 C100.364,6.3021552 92.003,12.2171552 91.388,12.7351552 C86.676,16.6851552 82.179,20.4071552 77.665,23.8171552 C74.323,26.3401552 70.966,28.6741552 67.675,31.0151552 C59.866,36.5661552 52.246,41.8971552 44.616,47.9301552 C38.422,52.8271552 32.211,58.1601552 25.819,64.3461552 C24.39,65.8061552 22.103,68.1951552 19.548,70.9581552 C14.541,76.3701552 8.463,83.1651552 5.215,86.7491552 C4.224,87.8421552 3.498,88.6411552 3.146,89.0191552 C1.649,90.6281552 -3.69482223e-13,88.1551552 -3.69482223e-13,88.0791552 C-3.69482223e-13,87.5361552 0.255,87.0531552 0.652,86.7431552 Z" id="Fill-55" fill="#000000"></path>
                        <path d="M67.003,29.5151552 C80.438,24.2491552 97.849,36.0821552 101.909,44.7771552" id="Stroke-59" stroke="#000000" stroke-width="2" stroke-linecap="round" stroke-linejoin="round"></path>
                        <path d="M91.748,36.4751552 C91.492,37.6701552 90.4,42.6291552 89.62,46.3631552 C89.159,48.5681552 88.809,50.3371552 88.798,50.6801552 C88.78,50.8621552 88.913,51.0231552 89.095,51.0411552 C89.276,51.0591552 89.438,50.9261552 89.456,50.7441552 C89.509,50.4141552 90.072,48.7551552 90.789,46.6861552 C92.036,43.0831552 93.749,38.3061552 94.154,37.1531552 C94.342,36.4891552 93.955,35.7981552 93.291,35.6111552 C92.627,35.4241552 91.935,35.8111552 91.748,36.4751552 Z" id="Fill-73" fill="#000000"></path>
                        <path d="M97.311,40.5391552 C97.26,41.5551552 97.038,45.7681552 96.891,48.9421552 C96.805,50.8031552 96.744,52.2911552 96.759,52.5801552 C96.755,52.7621552 96.899,52.9141552 97.082,52.9182807 C97.264,52.9231552 97.416,52.7781552 97.42,52.5961552 C97.449,52.3141552 97.733,50.8811552 98.095,49.0911552 C98.724,45.9781552 99.586,41.8491552 99.791,40.8531552 C99.877,40.1681552 99.392,39.5421552 98.708,39.4561552 C98.023,39.3691552 97.397,39.8541552 97.311,40.5391552 Z" id="Fill-76" fill="#000000"></path>
                        <path d="M80.087,30.4201552 C79.692,31.5371552 78.04,36.1671552 76.818,39.6561552 C76.103,41.6981552 75.538,43.3351552 75.455,43.6611552 C75.399,43.8351552 75.494,44.0211552 75.668,44.0781552 C75.841,44.1341552 76.028,44.0391552 76.084,43.8651552 C76.207,43.5581552 76.972,42.0331552 77.934,40.1321552 C79.602,36.8341552 81.847,32.4611552 82.384,31.4071552 C82.656,30.7731552 82.363,30.0371552 81.729,29.7651552 C81.095,29.4931552 80.359,29.7861552 80.087,30.4201552 Z" id="Fill-78" fill="#000000"></path>
                        <path d="M74.389,28.2261552 C74.096,28.8121552 72.878,31.2141552 71.971,33.0481552 C71.432,34.1381552 71.01,35.0031552 70.953,35.1811552 C70.877,35.3471552 70.95,35.5431552 71.116,35.6191552 C71.282,35.6951552 71.478,35.6221552 71.554,35.4561552 L76.475,29.6031552 C76.855,29.0271552 76.697,28.2511552 76.121,27.8711552 C75.545,27.4911552 74.769,27.6501552 74.389,28.2261552 Z" id="Fill-79" fill="#000000"></path>
                        <path d="M86.848,32.5791552 C86.336,33.9761552 84.163,39.7691552 82.596,44.1371552 C81.667,46.7281552 80.954,48.8131552 80.909,49.2221552 C80.88,49.4021552 81.002,49.5721552 81.182,49.6021552 C81.362,49.6311552 81.532,49.5091552 81.562,49.3291552 C81.647,48.9401552 82.557,47.0081552 83.715,44.6061552 C85.729,40.4271552 88.493,34.8961552 89.147,33.5611552 C89.418,32.9271552 89.123,32.1921552 88.489,31.9211552 C87.854,31.6501552 87.119,31.9451552 86.848,32.5791552 Z" id="Fill-82" fill="#000000"></path>
                    </g>
                    <g id="mtn5" transform="translate(502.522000, 246.482716)">
                        <path d="M42.597,11.2515888 C60.459,8.70458884 71.21,18.6295888 78.559,31.0975888" id="Stroke-60" stroke="#000000" stroke-width="3" stroke-linecap="round" stroke-linejoin="round"></path>
                        <path d="M1.221,26.4545888 C1.182,26.2145888 2.039,26.1265888 2.743,25.7855888 C6.588,23.9225888 15.402,19.3715888 19.159,17.9845888 C28.67,13.8415888 44.556,8.02558884 56.721,4.17758884 C58.262,3.68958884 59.749,3.24858884 61.158,2.86558884 C65.854,1.59258884 69.646,0.782588838 71.7,0.342588838 C72.516,0.167588838 73.08,0.0565888379 73.353,0.0225888379 C74.389,-0.108411162 74.908,0.368588838 75.006,0.473588838 C75.108,0.580588838 75.4,0.872588838 75.55,1.48358884 C75.658,1.92458884 75.812,2.84658884 76.018,4.18258884 C76.298,6.00358884 76.661,8.63358884 77.15,11.8635888 C77.881,16.6875888 78.887,22.8515888 79.944,29.6895888 C80.861,35.6235888 81.815,42.0665888 82.844,48.5535888 C83.343,51.7005888 83.849,54.8575888 84.399,57.9705888 C85.484,64.1075888 86.728,70.0475888 87.661,75.5075888 C87.918,77.0175888 88.145,78.4885888 88.36,79.9125888 C89.86,89.8185888 90.755,97.4055888 90.786,99.9595888 C90.786,101.338589 89.666,102.459589 88.286,102.459589 C86.906,102.459589 85.786,101.338589 85.786,99.9595888 C85.815,97.4885888 84.997,90.1425888 83.874,80.5125888 C83.717,79.1735888 83.551,77.7935888 83.403,76.3725888 C82.865,71.2085888 82.431,65.5605888 81.776,59.7605888 C81.444,56.8245888 81.07,53.8545888 80.661,50.8895888 C79.731,44.1555888 78.658,37.4515888 77.67,31.2535888 C76.331,22.8575888 75.126,15.3895888 74.097,10.1125888 C73.682,7.98858884 73.27,6.22958884 72.955,4.89458884 C72.865,4.51358884 72.767,4.13058884 72.673,3.78558884 C70.862,4.35358884 67.602,5.47358884 63.466,6.84958884 C62.371,7.21358884 61.219,7.60258884 60.006,7.96958884 C58.346,8.47158884 56.579,8.94258884 54.754,9.45358884 C43.052,12.7315888 28.819,16.8145888 19.992,20.0585888 C16.366,21.6345888 7.925,26.5955888 4.251,28.6675888 C3.432,29.1295888 2.83,29.4535888 2.537,29.5895888 C0.7,30.4405888 0.012,28.3925888 2.84217094e-14,28.0825888 C2.84217094e-14,27.3115888 0.516,26.6595888 1.221,26.4545888 Z M3.097,27.1285888 C3.282,27.3995888 3.391,27.7285888 3.391,28.0825888 C3.405,27.7055888 3.29,27.3945888 3.097,27.1285888 Z" id="Fill-62" fill="#000000"></path>
                        <path d="M68.172,20.2965888 C67.733,21.1215888 65.891,24.5225888 64.54,27.1045888 C63.733,28.6475888 63.106,29.8855888 63.04,30.1385888 C62.979,30.3105888 63.07,30.4995888 63.242,30.5595888 C63.414,30.6205888 63.603,30.5295888 63.664,30.3575888 C63.766,30.1315888 64.561,29.0755888 65.564,27.7545888 C67.324,25.4355888 69.704,22.3905888 70.273,21.6505888 C70.647,21.0705888 70.479,20.2965888 69.899,19.9235888 C69.319,19.5495888 68.545,19.7165888 68.172,20.2965888 Z" id="Fill-74" fill="#000000"></path>
                        <path d="M63.395,14.3555888 C62.944,15.0405888 61.056,17.8555888 59.665,20.0015888 C58.826,21.2965888 58.176,22.3345888 58.105,22.5515888 C58.032,22.7185888 58.109,22.9135888 58.276,22.9865888 C58.444,23.0595888 58.639,22.9825888 58.711,22.8155888 C58.815,22.6285888 59.612,21.7985888 60.616,20.7545888 C62.386,18.9135888 64.77,16.5095888 65.342,15.9235888 C65.775,15.3865888 65.69,14.5985888 65.152,14.1655888 C64.615,13.7335888 63.827,13.8185888 63.395,14.3555888 Z" id="Fill-75" fill="#000000"></path>
                        <path d="M72.278,24.1565888 C72.085,24.7335888 71.281,27.0965888 70.69,28.9025888 C70.336,29.9835888 70.062,30.8365888 70.037,31.0085888 C69.988,31.1845888 70.091,31.3665888 70.267,31.4155888 C70.442,31.4645888 70.625,31.3615888 70.674,31.1865888 L74.528,25.2455888 C74.828,24.6245888 74.568,23.8765888 73.947,23.5755888 C73.326,23.2755888 72.578,23.5355888 72.278,24.1565888 Z" id="Fill-77" fill="#000000"></path>
                        <path d="M52.734,11.6935888 L50.648,16.0445888 C50.57,16.2095888 50.64,16.4065888 50.804,16.4855888 C50.969,16.5635888 51.167,16.4935888 51.245,16.3285888 L54.729,13.2015888 C55.145,12.6505888 55.035,11.8665888 54.485,11.4505888 C53.935,11.0345888 53.15,11.1435888 52.734,11.6935888 Z" id="Fill-80" fill="#000000"></path>
                        <path d="M57.37,12.8175888 C56.916,13.6355888 55.018,17.0115888 53.613,19.5705888 C52.782,21.0835888 52.129,22.2965888 52.039,22.5445888 C51.962,22.7105888 52.035,22.9075888 52.201,22.9835888 C52.366,23.0595888 52.563,22.9875888 52.639,22.8215888 C52.765,22.5985888 53.588,21.5505888 54.624,20.2405888 C56.433,17.9525888 58.863,14.9395888 59.447,14.2085888 C59.831,13.6355888 59.677,12.8585888 59.104,12.4745888 C58.531,12.0905888 57.754,12.2445888 57.37,12.8175888 Z" id="Fill-81" fill="#000000"></path>
                    </g>
                    <path d="M-1.13686838e-13,292.818304 C7.0255,286.268304 14.0362,269.931304 49.4007,257.493304 C156.642,219.774304 393.951,221.311304 493.373,277.620304 C534.304,300.801304 579.573,334.763304 590.401,346.144304" id="hills" stroke="#000000" stroke-width="5.5" stroke-linecap="round" stroke-linejoin="round"></path>
                </g>
                <g id="dotted-circle" transform="translate(43.710600, 0.000000)" stroke="#000000" stroke-dasharray="18,45,0.0001,0.0001" stroke-linecap="round" stroke-linejoin="round" stroke-width="3">
                    <path d="M-6.25277607e-13,246.174 C20.8706,106.853 138.6794,4.40536496e-13 280.6964,4.40536496e-13 C344.5054,4.40536496e-13 403.4274,21.571 450.8654,57.966" id="Stroke-88"></path>
                    <path d="M555.8034,244.267 C558.0154,258.703 559.1624,273.489 559.1624,288.54 C559.1624,308.143 557.2164,327.294 553.5064,345.812" id="Stroke-89"></path>
                    <path d="M519.5904,433.838 C469.6054,521.6347 375.1674,580.894 266.9984,580.894 C221.9424,580.894 179.2684,570.6123 141.1964,552.2692" id="Stroke-90"></path>
                </g>
            </g>
        </g>
    </g>
</svg>