<svg width="146px" height="150px" viewBox="0 0 146 150" version="1.1" xmlns="http://www.w3.org/2000/svg" xmlns:xlink="http://www.w3.org/1999/xlink">
    <title>sun</title>
    <desc>Created with Sketch.</desc>
    <g id="new-michellewiltshire" stroke="none" stroke-width="1" fill="none" fill-rule="evenodd">
        <g id="sun-moon" transform="translate(-498.000000, -79.000000)">
            <g transform="translate(498.952481, 79.180856)">
                <path d="M76.5825186,20.7141444 C104.751519,20.7141444 127.620519,43.5841444 127.620519,71.7531444 C127.620519,99.9221444 104.751519,122.792144 76.5825186,122.792144 C48.4135186,122.792144 25.5435186,99.9221444 25.5435186,71.7531444 C25.5435186,43.5841444 48.4135186,20.7141444 76.5825186,20.7141444 Z" id="main-circle" stroke="#000000" stroke-width="3" stroke-linecap="round" stroke-linejoin="round" fill="#ffffff"></path>
                <path d="M30.8965186,5.02114439 L53.2665186,25.6301444 C45.9945186,28.0101444 39.1875186,34.2001444 35.1825186,41.9221444 L30.8965186,5.02114439 Z" id="Fill-8" fill="#000000"></path>
                <path d="M31.6365186,4.21814439 C31.3005186,3.90814439 30.8075186,3.84014439 30.4005186,4.04814439 C29.9935186,4.25514439 29.7585186,4.69314439 29.8115186,5.14714439 C29.8115186,5.14714439 30.7695186,14.3861444 31.9265186,23.6011444 C32.4185186,27.5251444 33.0385186,31.4311444 33.4325186,34.6451444 C33.9645186,38.9801444 34.2385186,42.0321444 34.2385186,42.0321444 C34.2865186,42.4471444 34.6005186,42.7821444 35.0115186,42.8571444 C35.4225186,42.9331444 35.8345186,42.7311444 36.0275186,42.3601444 C37.1745186,40.2091444 38.5605186,38.1971444 40.0905186,36.3411444 C41.1265186,35.0841444 42.2295186,33.8991444 43.3925186,32.8061444 C46.4535186,29.9311444 49.9175186,27.6891444 53.5355186,26.4531444 C53.8275186,26.3571444 54.0465186,26.1141444 54.1125186,25.8141444 C54.1775186,25.5141444 54.0785186,25.2021444 53.8525186,24.9931444 C53.8525186,24.9931444 51.9735186,23.3331444 49.3325186,20.9211444 C47.9925186,19.6971444 46.4575186,18.2781444 44.8695186,16.7881444 C38.6905186,10.9941444 31.6365186,4.21814439 31.6365186,4.21814439 Z M32.3415186,7.76014439 C32.7685186,11.1991444 33.5035186,17.2661444 34.1535186,23.3421444 C34.5735186,27.2751444 34.8655186,31.2191444 35.2185186,34.4381444 C35.4105186,36.1871444 35.5945186,37.7231444 35.7475186,38.9351444 C36.5745186,37.5671444 37.4865186,36.2581444 38.4805186,35.0281444 C39.5655186,33.6851444 40.7455186,32.4361444 41.9955186,31.2971444 C44.9215186,28.6301444 48.2245186,26.5621444 51.6395186,25.2761444 C50.8555186,24.5311444 49.6725186,23.4161444 48.2515186,22.0951444 C46.9215186,20.8591444 45.3815186,19.4451444 43.7675186,17.9841444 C39.6075186,14.2201444 34.9875186,10.1081444 32.3415186,7.76014439 Z" id="Fill-9" fill="#000000"></path>
                <path d="M143.518519,62.6881444 L127.244519,73.4311444 C128.361519,67.0691444 127.215519,59.3341444 124.282519,52.9521444 L143.518519,62.6881444 Z" id="Fill-10" fill="#000000"></path>
                <path d="M144.120519,63.6001444 C144.445519,63.3851444 144.631519,63.0141444 144.609519,62.6261444 C144.586519,62.2371444 144.359519,61.8901444 144.012519,61.7141444 C144.012519,61.7141444 137.877519,58.4801444 132.481519,55.8501444 C130.416519,54.8441444 128.437519,53.9821444 127.008519,53.2961444 C125.583519,52.6131444 124.686519,52.1541444 124.686519,52.1541444 C124.347519,51.9821444 123.936519,52.0441444 123.662519,52.3071444 C123.38862,52.5711444 123.311519,52.9791444 123.470519,53.3251444 C124.826519,56.3901444 125.701519,59.7731444 126.219519,63.1381444 C126.756519,66.6331444 126.904519,70.1211444 126.408519,73.2841444 C126.350519,73.6181444 126.495519,73.9541444 126.778519,74.1401444 C127.061519,74.3261444 127.428519,74.3251444 127.711519,74.1391444 C127.711519,74.1391444 129.818519,72.6601444 132.564519,70.8731444 C137.381519,67.7381444 144.120519,63.6001444 144.120519,63.6001444 Z M126.114519,54.9121444 C127.122519,57.4441444 127.878519,60.1271444 128.280519,62.8261444 C128.732519,65.8521444 128.744519,68.8841444 128.380519,71.7081444 C129.252519,71.1501444 130.411519,70.3981444 131.687519,69.5441444 C135.025519,67.3101444 139.181519,64.4061444 141.382519,62.8581444 C139.175519,61.7721444 135.108519,59.7521444 131.472519,57.8421444 C129.439519,56.7741444 127.572519,55.6901444 126.174519,54.9441444 L126.114519,54.9121444 Z" id="Fill-11" fill="#000000"></path>
                <path d="M138.382519,88.5691444 L124.282519,90.7551444 C126.821519,86.9641444 128.199519,81.6221444 127.981519,76.6321444 L138.382519,88.5691444 Z" id="Fill-12" fill="#000000"></path>
                <path d="M138.549519,89.6481444 C138.942519,89.5871444 139.271519,89.3171444 139.407519,88.9441444 C139.544519,88.5701444 139.466519,88.1511444 139.205519,87.8511444 C139.205519,87.8511444 135.944519,83.9381444 132.979519,80.6761444 C131.844519,79.4271444 130.708519,78.3201444 129.919519,77.4631444 C129.134519,76.6091444 128.658519,76.0421444 128.658519,76.0421444 C128.407519,75.7541444 128.002519,75.6561444 127.648519,75.7981444 C127.293519,75.9401444 127.067519,76.2901444 127.084519,76.6711444 C127.141519,79.0201444 126.772519,81.4271444 126.197519,83.7231444 C125.598519,86.1131444 124.769519,88.3941444 123.574519,90.2811444 C123.386519,90.5621444 123.382519,90.9271444 123.564519,91.2121444 C123.745519,91.4981444 124.079519,91.6481444 124.413519,91.5971444 C124.413519,91.5971444 126.261519,91.2321444 128.634519,90.8851444 C132.796519,90.2741444 138.549519,89.6481444 138.549519,89.6481444 Z M128.919519,79.1381444 C128.866519,80.8561444 128.643519,82.5821444 128.218519,84.2361444 C127.715519,86.1931444 126.938519,88.0371444 125.986519,89.6761444 C126.667519,89.5821444 127.493519,89.4601444 128.390519,89.3131444 C131.021519,88.8831444 134.262519,88.2661444 136.284519,87.8711444 C135.028519,86.4681444 133.050519,84.2301444 131.303519,82.1371444 C130.399519,81.0541444 129.593519,79.9841444 128.919519,79.1381444 Z" id="Fill-13" fill="#000000"></path>
                <path d="M18.6915186,43.6561444 L27.5815186,54.8161444 C28.2815186,50.3081444 30.8875186,45.4451444 34.4285186,41.9221444 L18.6915186,43.6561444 Z" id="Fill-14" fill="#000000"></path>
                <path d="M18.5715186,42.5701444 C18.1765186,42.6141444 17.8355186,42.8691444 17.6825186,43.2361444 C17.5305186,43.6041444 17.5895186,44.0251444 17.8375186,44.3361444 C17.8375186,44.3361444 21.6445186,48.6951444 24.2925186,51.9631444 C25.8015186,53.8261444 26.9145186,55.3461444 26.9145186,55.3461444 C27.1255186,55.6111444 27.4725186,55.7261444 27.7995186,55.6391444 C28.1265186,55.5521444 28.3715186,55.2811444 28.4235186,54.9461444 C28.8225186,52.7501444 29.7575186,50.5101444 30.9365186,48.3471444 C32.0695186,46.2671444 33.4295186,44.2481444 35.0625186,42.5581444 C35.3325186,42.2891444 35.4035186,41.8791444 35.2385186,41.5341444 C35.0745186,41.1901444 34.7095186,40.9881444 34.3305186,41.0291444 C34.3305186,41.0291444 33.5965186,41.1241444 32.4395186,41.2201444 C31.2785186,41.3161444 29.6935186,41.3611444 28.0125186,41.5111444 C23.6215186,41.9011444 18.5715186,42.5701444 18.5715186,42.5701444 Z M32.0405186,43.1291444 C30.9715186,43.2961444 29.6545186,43.5361444 28.2555186,43.7201444 C25.5525186,44.0761444 22.5815186,44.3821444 20.7065186,44.5641444 C21.9265186,46.2241444 23.8925186,48.8741444 25.5365186,50.9721444 C26.0965186,51.6881444 26.6225186,52.3371444 27.0585186,52.8681444 C27.4685186,51.0171444 28.1475186,49.1351444 29.1025186,47.3551444 C29.9105186,45.8511444 30.9155186,44.4301444 32.0405186,43.1291444 Z" id="Fill-15" fill="#000000"></path>
                <path d="M39.2145186,133.612144 L59.2185186,119.973144 C51.8525186,118.202144 44.2145186,113.153144 38.9565186,106.691144 L39.2145186,133.612144 Z" id="Fill-16" fill="#000000"></path>
                <path d="M38.1225186,133.623144 C38.1265186,134.026144 38.3525186,134.394144 38.7095186,134.581144 C39.0665186,134.767144 39.4975186,134.742144 39.8305186,134.515144 C39.8305186,134.515144 47.7895186,128.767144 53.6645186,124.721144 C57.0155186,122.414144 59.6995186,120.679144 59.6995186,120.679144 C59.9785186,120.489144 60.1195186,120.152144 60.0585186,119.819144 C59.9975186,119.487144 59.7465186,119.222144 59.4175186,119.143144 C55.7625186,118.205144 52.0865186,116.378144 48.6295186,114.062144 C45.3195186,111.844144 42.1965186,109.175144 39.6545186,106.123144 C39.4135186,105.826144 39.0105186,105.714144 38.6505186,105.844144 C38.2905186,105.974144 38.0525186,106.317144 38.0565186,106.699144 C38.0565186,106.699144 38.0875186,107.511144 38.0865186,108.853144 C38.0845186,110.858144 37.9595186,114.041144 37.9505186,117.470144 C37.9315186,124.966144 38.1225186,133.623144 38.1225186,133.623144 Z M39.8755186,109.174144 C39.9275186,111.188144 40.0975186,114.207144 40.1685186,117.449144 C40.2835186,122.741144 40.3055186,128.613144 40.3075186,131.607144 C43.0385186,129.841144 48.5125186,126.283144 52.7695186,123.409144 C54.5645186,122.197144 56.1385186,121.102144 57.2185186,120.343144 C53.9095186,119.390144 50.5675186,117.853144 47.4725186,115.795144 C44.6895186,113.945144 42.1185186,111.677144 39.8755186,109.174144 Z" id="Fill-17" fill="#000000"></path>
                <path d="M12.1305186,105.780144 L27.2405186,86.8631444 C28.4505186,94.3411444 32.9085186,102.338144 38.9565186,108.069144 L12.1305186,105.780144 Z" id="Fill-18" fill="#000000"></path>
                <path d="M11.2775186,105.098144 C11.0255186,105.413144 10.9685186,105.841144 11.1275186,106.211144 C11.2865186,106.581144 11.6365186,106.834144 12.0375186,106.868144 C12.0375186,106.868144 20.6555186,107.711144 28.1315186,108.258144 C31.5525186,108.508144 34.7355186,108.623144 36.7345186,108.773144 C38.0725186,108.873144 38.8795186,108.966144 38.8795186,108.966144 C39.2605186,108.998144 39.6205186,108.786144 39.7775186,108.438144 C39.9345186,108.089144 39.8535186,107.679144 39.5755186,107.416144 C36.7235186,104.650144 34.2975186,101.335144 32.3355186,97.8671444 C30.2865186,94.2451444 28.7435186,90.4411444 28.0835186,86.7261444 C28.0295186,86.3921444 27.7845186,86.1221444 27.4575186,86.0361444 C27.1305186,85.9501444 26.7835186,86.0651444 26.5725186,86.3291444 C26.5725186,86.3291444 24.6405186,88.8751444 22.0865186,92.0421444 C17.6085186,97.5951444 11.2775186,105.098144 11.2775186,105.098144 Z M26.7215186,88.8281444 C25.8825186,89.8481444 24.6715186,91.3351444 23.3285186,93.0331444 C20.1405186,97.0621444 16.1805186,102.252144 14.2125186,104.841144 C17.1985186,105.070144 23.0525186,105.534144 28.3205186,106.048144 C31.5475186,106.363144 34.5455186,106.761144 36.5495186,106.965144 C34.2225186,104.540144 32.1545186,101.805144 30.5205186,98.8901444 C28.7025186,95.6481444 27.4215186,92.2001444 26.7215186,88.8281444 Z" id="Fill-19" fill="#000000"></path>
                <path d="M131.332519,10.5701444 L121.328519,47.8361444 C116.078519,38.5231444 107.515519,27.6351444 95.1095186,24.4881444 L131.332519,10.5701444 Z" id="Fill-20" fill="#000000"></path>
                <path d="M132.387519,10.8541444 C132.493519,10.4571444 132.368519,10.0341444 132.063519,9.75914439 C131.757519,9.48414439 131.324519,9.40414439 130.940519,9.55114439 C130.940519,9.55114439 119.255519,13.9311444 109.196519,17.8751444 C101.515519,20.8861444 94.7905186,23.6571444 94.7905186,23.6571444 C94.4285186,23.7961444 94.1985186,24.1531444 94.2215186,24.5401444 C94.2445186,24.9281444 94.5145186,25.2551444 94.8905186,25.3511444 C99.5425186,26.5781444 103.609519,28.9471444 107.168519,31.8781444 C108.809519,33.2281444 110.339519,34.7011444 111.773519,36.2401444 C115.327519,40.0521444 118.267519,44.2931444 120.562519,48.2671444 C120.737519,48.5781444 121.083519,48.7521444 121.438519,48.7081444 C121.792519,48.6631444 122.084519,48.4081444 122.177519,48.0631444 C122.177519,48.0631444 123.131519,44.2621444 124.498519,39.0981444 C124.987519,37.2481444 125.533519,35.2241444 126.108519,33.1391444 C128.967519,22.7811444 132.387519,10.8541444 132.387519,10.8541444 Z M129.756519,12.3621444 C126.018519,13.8251444 117.587519,17.1111444 110.000519,19.9671444 C105.160519,21.7891444 100.661519,23.4301444 97.9795186,24.4011444 C103.058519,26.1351444 107.493519,29.1101444 111.242519,32.7191444 C115.274519,36.6001444 118.501519,41.1991444 121.054519,45.5721444 C121.504519,43.9721444 122.182519,41.5411444 122.960519,38.6851444 C123.463519,36.8391444 124.004519,34.8141444 124.550519,32.7201444 C126.580519,24.9441444 128.777519,16.2491444 129.756519,12.3621444 Z" id="Fill-21" fill="#000000"></path>
                <path d="M123.600519,133.450144 L123.600519,93.1321444 C116.280519,104.444144 103.392519,118.051144 89.2005186,122.027144 L123.600519,133.450144 Z" id="Fill-22" fill="#000000"></path>
                <path d="M123.256519,134.487144 C123.589519,134.597144 123.955519,134.541144 124.239519,134.336144 C124.524519,134.131144 124.692519,133.801144 124.692519,133.450144 C124.692519,133.450144 124.488519,120.487144 124.413519,109.259144 C124.393519,106.373144 124.390519,103.602144 124.398519,101.196144 C124.414519,96.4561444 124.466519,93.1321444 124.466519,93.1321444 C124.466519,92.7481444 124.214519,92.4101444 123.845519,92.3011444 C123.477519,92.1921444 123.081519,92.3391444 122.873519,92.6611444 C119.725519,97.4291444 115.527519,102.568144 110.721519,107.259144 C108.786519,109.149144 106.765519,110.979144 104.647519,112.660144 C101.290519,115.322144 97.7355186,117.671144 93.9995186,119.336144 C92.3455186,120.074144 90.6515186,120.659144 88.9465186,121.119144 C88.5465186,121.231144 88.2675186,121.590144 88.257242,122.005144 C88.2475186,122.419144 88.5095186,122.792144 88.9035186,122.922144 C88.9035186,122.922144 93.4005186,124.552144 99.1685186,126.515144 C109.275519,129.956144 123.256519,134.487144 123.256519,134.487144 Z M122.768519,95.9781444 C120.419519,99.4311444 117.617519,103.020144 114.444519,106.421144 C112.873519,108.103144 111.212519,109.740144 109.469519,111.285144 C104.728519,115.489144 99.3905186,118.993144 93.8635186,121.328144 C93.3275186,121.554144 92.7915186,121.772144 92.2535186,121.979144 C94.1375186,122.563144 96.8385186,123.410144 99.8735186,124.393144 C108.080519,127.050144 118.740519,130.650144 122.531519,131.935144 C122.587519,128.193144 122.728519,118.178144 122.787519,109.259144 C122.807519,106.373144 122.810519,103.602144 122.802519,101.196144 C122.795519,99.1371444 122.781519,97.3461444 122.768519,95.9781444 Z" id="Fill-23" fill="#000000"></path>
                <path d="M71.8475186,1.09214439 L93.5475186,23.3131444 C84.7325186,19.3091444 70.1805186,19.4741444 59.6105186,23.3891444 L71.8475186,1.09214439 Z" id="Fill-24" fill="#000000"></path>
                <path d="M72.6285186,0.329144388 C72.3865186,0.081144388 72.0425186,-0.036855612 71.6995186,0.010144388 C71.3565186,0.057144388 71.0565186,0.263144388 70.8895186,0.567144388 C70.8895186,0.567144388 65.8465186,9.56214439 62.2985186,16.1611444 C60.2735186,19.9261444 58.7525186,22.9181444 58.7525186,22.9181444 C58.5555186,23.2771444 58.6025186,23.7191444 58.8695186,24.0291444 C59.1365186,24.3381444 59.5675186,24.4491444 59.9505186,24.3071444 C61.4875186,23.7071444 63.1045186,23.1601444 64.7925186,22.7481444 C68.5675186,21.8241444 72.6395186,21.4541444 76.6165186,21.4161444 C78.3385186,21.3991444 80.0455186,21.4591444 81.7105186,21.5841444 C85.9745186,21.9061444 89.9655186,22.7021444 93.1835186,24.1141444 C93.5695186,24.2891444 94.0245186,24.1651444 94.2675186,23.8181444 C94.5105186,23.4711444 94.4725186,23.0011444 94.1765186,22.6981444 C94.1765186,22.6981444 91.9275186,20.4861444 88.9095186,17.4231444 C87.8275186,16.3261444 86.6505186,15.1181444 85.4445186,13.8611444 C79.4545186,7.62114439 72.6285186,0.329144388 72.6285186,0.329144388 Z M72.1185186,2.89114439 C70.6475186,5.61914439 67.0925186,12.1901444 64.2645186,17.2401444 C63.2895186,18.9811444 62.3975186,20.5391444 61.7235186,21.7061444 C62.5925186,21.4631444 63.4785186,21.2391444 64.3775186,21.0251444 C68.2915186,20.0941444 72.4665186,19.4561444 76.5825186,19.3611444 C78.3725186,19.3191444 80.1485186,19.3671444 81.8775186,19.5171444 C84.8515186,19.7751444 87.6865186,20.3121444 90.2365186,21.1021444 C89.5175186,20.3491444 88.6825186,19.4791444 87.7695186,18.5361444 C86.6985186,17.4291444 85.5185186,16.2231444 84.2905186,14.9881444 C79.6115186,10.2791444 74.3245186,5.06214439 72.1185186,2.89114439 Z" id="Fill-25" fill="#000000"></path>
                <path d="M77.5235186,148.043144 L88.2865186,121.007144 C80.9585186,125.371144 68.9185186,125.313144 60.2035186,121.204144 L77.5235186,148.043144 Z" id="Fill-26" fill="#000000"></path>
                <path d="M76.6055186,148.635144 C76.8275186,148.979144 77.2225186,149.170144 77.6295186,149.130144 C78.0365186,149.091144 78.3875186,148.827144 78.5385186,148.447144 C78.5385186,148.447144 81.8215186,139.684144 84.7395186,132.124144 C85.3275186,130.601144 85.9025186,129.128144 86.4385186,127.789144 C87.9365186,124.049144 89.0845186,121.325144 89.0845186,121.325144 C89.2205186,120.983144 89.1235186,120.593144 88.8435186,120.354144 C88.5635186,120.115144 88.1635186,120.081144 87.8475186,120.270144 C84.1755186,122.393144 79.3085186,123.293144 74.3105186,123.238144 C69.5795186,123.186144 64.7085186,122.284144 60.5875186,120.390144 C60.2245186,120.219144 59.7915186,120.309144 59.5265186,120.611144 C59.2625186,120.913144 59.2305186,121.354144 59.4475186,121.692144 C59.4475186,121.692144 59.9895186,122.489144 60.8405186,123.834144 C62.1115186,125.844144 64.0285186,129.101144 66.1995186,132.541144 C70.9455186,140.063144 76.6055186,148.635144 76.6055186,148.635144 Z M86.6675186,122.845144 C83.0975186,124.505144 78.7545186,125.361144 74.2905186,125.325144 C70.2955186,125.292144 66.2195186,124.538144 62.5415186,123.173144 C63.8645186,125.163144 65.9355186,128.112144 68.0645186,131.338144 C71.6175186,136.724144 75.4775186,142.776144 77.3275186,145.693144 C78.5765186,142.721144 81.0405186,136.838144 83.2225186,131.520144 C83.8425186,130.010144 84.4365186,128.545144 84.9675186,127.203144 C85.6465186,125.488144 86.2315186,123.978144 86.6675186,122.845144 Z" id="Fill-27" fill="#000000"></path>
                <path d="M1.09151861,64.6601444 L28.5595186,52.9521444 C23.8895186,61.5941444 23.4385186,76.1401444 27.1755186,86.8631444 L1.09151861,64.6601444 Z" id="Fill-28" fill="#000000"></path>
                <path d="M0.66351861,63.6551444 C0.31551861,63.8031444 0.0695186102,64.1211444 0.0125186102,64.4951444 C-0.0444813898,64.8691444 0.0955186102,65.2461444 0.38451861,65.4911444 C0.38451861,65.4911444 8.69751861,72.7191444 16.0175186,78.8321444 C18.8165186,81.1701444 21.5065186,83.2981444 23.4455186,84.9031444 C25.3795186,86.5031444 26.5965186,87.5431444 26.5965186,87.5431444 C26.9035186,87.8041444 27.3475186,87.8281444 27.6805186,87.6001444 C28.0125186,87.3721444 28.1515186,86.9491444 28.0185186,86.5681444 C26.8115186,82.9781444 26.1075186,78.9571444 25.8405186,74.8851444 C25.7295186,73.1821444 25.6985186,71.4701444 25.7335186,69.7741444 C25.8635186,63.6481444 26.9895186,57.7331444 29.2925186,53.3481444 C29.4605186,53.0361444 29.4135186,52.6521444 29.1755186,52.3901444 C28.9365186,52.1281444 28.5585186,52.0461444 28.2325186,52.1851444 C28.2325186,52.1851444 24.6305186,53.7841444 20.0055186,55.7281444 C11.8955186,59.1361444 0.66351861,63.6551444 0.66351861,63.6551444 Z M26.8215186,54.5731444 C25.3165186,55.2001444 23.1135186,56.1281444 20.6325186,57.2001444 C14.4335186,59.8801444 6.48651861,63.4351444 3.13051861,64.9411444 C5.79451861,67.1711444 11.9935186,72.3821444 17.4665186,77.1301444 C20.2205186,79.5201444 22.7515186,81.8361444 24.6445186,83.4941444 C24.8995186,83.7161444 25.1415186,83.9281444 25.3705186,84.1271444 C24.5705186,81.2361444 24.0365186,78.1541444 23.7905186,75.0331444 C23.6505186,73.2641444 23.6015186,71.4831444 23.6555186,69.7201444 C23.8265186,64.1911444 24.9145186,58.8531444 26.8215186,54.5731444 Z" id="Fill-29" fill="#000000"></path>
            </g>
        </g>
    </g>
</svg>